<svg xmlns="http://www.w3.org/2000/svg" xmlns:xlink="http://www.w3.org/1999/xlink" contentStyleType="text/css" data-diagram-type="CLASS" height="679px" preserveAspectRatio="none" style="width:1312px;height:679px;background:#FFFFFF;" version="1.1" viewBox="0 0 1312 679" width="1312px" zoomAndPan="magnify"><?plantuml 1.2026.3?><defs/><g><g class="title" data-source-line="6"><text fill="#000000" font-family="sans-serif" font-size="14" font-weight="700" lengthAdjust="spacing" textLength="250.79" x="527.583" y="22.9951">Notification Facade PostgreSQL</text></g><!--class notification_event--><g class="entity" data-qualified-name="notification_event" data-source-line="8" id="ent0002"><rect fill="#F1F1F1" height="286.75" rx="2.5" ry="2.5" style="stroke:#181818;stroke-width:0.5;" width="281.2402" x="7" y="317.5569"/><text fill="#000000" font-family="sans-serif" font-size="14" lengthAdjust="spacing" textLength="125.6035" x="84.8184" y="335.552">notification_event</text><line style="stroke:#181818;stroke-width:0.5;" x1="8" x2="287.2402" y1="343.8538" y2="343.8538"/><g data-visibility-modifier="IE_MANDATORY"><ellipse cx="18" cy="357.5022" fill="#000000" rx="3" ry="3" style="stroke:#000000;stroke-width:1;"/></g><text fill="#000000" font-family="sans-serif" font-size="14" lengthAdjust="spacing" textLength="142.9941" x="27" y="360.8489">event_id : uuid &#171;PK&#187;</text><line style="stroke:#181818;stroke-width:1;" x1="8" x2="287.2402" y1="368.1506" y2="368.1506"/><text fill="#000000" font-family="sans-serif" font-size="14" lengthAdjust="spacing" textLength="102.3682" x="13" y="385.1457">client_id : uuid</text><text fill="#000000" font-family="sans-serif" font-size="14" lengthAdjust="spacing" textLength="269.2402" x="13" y="401.4426">idempotency_key : varchar(128) &#171;UK&#187;</text><text fill="#000000" font-family="sans-serif" font-size="14" lengthAdjust="spacing" textLength="187.7627" x="13" y="417.7395">template_id : varchar(128)</text><text fill="#000000" font-family="sans-serif" font-size="14" lengthAdjust="spacing" textLength="153.3438" x="13" y="434.0364">template_version : int</text><text fill="#000000" font-family="sans-serif" font-size="14" lengthAdjust="spacing" textLength="146.3984" x="13" y="450.3332">priority : varchar(64)</text><text fill="#000000" font-family="sans-serif" font-size="14" lengthAdjust="spacing" textLength="224.0889" x="13" y="466.6301">preferred_channel : varchar(64)</text><text fill="#000000" font-family="sans-serif" font-size="14" lengthAdjust="spacing" textLength="191.0303" x="13" y="482.927">strategy_kind : varchar(64)</text><text fill="#000000" font-family="sans-serif" font-size="14" lengthAdjust="spacing" textLength="194.667" x="13" y="499.2239">scheduled_at : timestamptz</text><text fill="#000000" font-family="sans-serif" font-size="14" lengthAdjust="spacing" textLength="138.8994" x="13" y="515.5207">status : varchar(64)</text><text fill="#000000" font-family="sans-serif" font-size="14" lengthAdjust="spacing" textLength="106.7979" x="13" y="531.8176">payload : jsonb</text><text fill="#000000" font-family="sans-serif" font-size="14" lengthAdjust="spacing" textLength="189.7793" x="13" y="548.1145">cancelled_at : timestamptz</text><text fill="#000000" font-family="sans-serif" font-size="14" lengthAdjust="spacing" textLength="204.8184" x="13" y="564.4114">cancel_reason : varchar(512)</text><text fill="#000000" font-family="sans-serif" font-size="14" lengthAdjust="spacing" textLength="176.6748" x="13" y="580.7082">created_at : timestamptz</text><text fill="#000000" font-family="sans-serif" font-size="14" lengthAdjust="spacing" textLength="181.2549" x="13" y="597.0051">updated_at : timestamptz</text></g><!--class event_audience--><g class="entity" data-qualified-name="event_audience" data-source-line="27" id="ent0003"><rect fill="#F1F1F1" height="107.4844" rx="2.5" ry="2.5" style="stroke:#181818;stroke-width:0.5;" width="236.4785" x="370.62" y="344.1869"/><text fill="#000000" font-family="sans-serif" font-size="14" lengthAdjust="spacing" textLength="110.8994" x="433.4096" y="362.182">event_audience</text><line style="stroke:#181818;stroke-width:0.5;" x1="371.62" x2="606.0985" y1="370.4838" y2="370.4838"/><g data-visibility-modifier="IE_MANDATORY"><ellipse cx="381.62" cy="384.1322" fill="#000000" rx="3" ry="3" style="stroke:#000000;stroke-width:1;"/></g><text fill="#000000" font-family="sans-serif" font-size="14" lengthAdjust="spacing" textLength="169.1279" x="390.62" y="387.4789">event_id : uuid &#171;PK, FK&#187;</text><line style="stroke:#181818;stroke-width:1;" x1="371.62" x2="606.0985" y1="394.7806" y2="394.7806"/><text fill="#000000" font-family="sans-serif" font-size="14" lengthAdjust="spacing" textLength="125.6377" x="376.62" y="411.7757">kind : varchar(64)</text><text fill="#000000" font-family="sans-serif" font-size="14" lengthAdjust="spacing" textLength="224.4785" x="376.62" y="428.0726">snapshot_on_dispatch : boolean</text><text fill="#000000" font-family="sans-serif" font-size="14" lengthAdjust="spacing" textLength="185.9717" x="376.62" y="444.3695">segment_id : varchar(128)</text></g><!--class event_recipient--><g class="entity" data-qualified-name="event_recipient" data-source-line="35" id="ent0004"><rect fill="#F1F1F1" height="74.8906" rx="2.5" ry="2.5" style="stroke:#181818;stroke-width:0.5;" width="251.4766" x="363.12" y="486.4869"/><text fill="#000000" font-family="sans-serif" font-size="14" lengthAdjust="spacing" textLength="108.582" x="434.5673" y="504.482">event_recipient</text><line style="stroke:#181818;stroke-width:0.5;" x1="364.12" x2="613.5966" y1="512.7838" y2="512.7838"/><g data-visibility-modifier="IE_MANDATORY"><ellipse cx="374.12" cy="526.4322" fill="#000000" rx="3" ry="3" style="stroke:#000000;stroke-width:1;"/></g><text fill="#000000" font-family="sans-serif" font-size="14" lengthAdjust="spacing" textLength="169.1279" x="383.12" y="529.7789">event_id : uuid &#171;PK, FK&#187;</text><line style="stroke:#181818;stroke-width:0.5;" x1="364.12" x2="613.5966" y1="537.0806" y2="537.0806"/><g data-visibility-modifier="IE_MANDATORY"><ellipse cx="374.12" cy="550.7291" fill="#000000" rx="3" ry="3" style="stroke:#000000;stroke-width:1;"/></g><text fill="#000000" font-family="sans-serif" font-size="14" lengthAdjust="spacing" textLength="225.4766" x="383.12" y="554.0757">recipient_id : varchar(128) &#171;PK&#187;</text></g><!--class dispatch--><g class="entity" data-qualified-name="dispatch" data-source-line="40" id="ent0005"><rect fill="#F1F1F1" height="205.2656" rx="2.5" ry="2.5" style="stroke:#181818;stroke-width:0.5;" width="281.2402" x="348.24" y="44.2969"/><text fill="#000000" font-family="sans-serif" font-size="14" lengthAdjust="spacing" textLength="59.5957" x="459.0623" y="62.292">dispatch</text><line style="stroke:#181818;stroke-width:0.5;" x1="349.24" x2="628.4802" y1="70.5938" y2="70.5938"/><g data-visibility-modifier="IE_MANDATORY"><ellipse cx="359.24" cy="84.2422" fill="#000000" rx="3" ry="3" style="stroke:#000000;stroke-width:1;"/></g><text fill="#000000" font-family="sans-serif" font-size="14" lengthAdjust="spacing" textLength="162.7158" x="368.24" y="87.5889">dispatch_id : uuid &#171;PK&#187;</text><line style="stroke:#181818;stroke-width:1;" x1="349.24" x2="628.4802" y1="94.8906" y2="94.8906"/><text fill="#000000" font-family="sans-serif" font-size="14" lengthAdjust="spacing" textLength="142.6045" x="354.24" y="111.8857">event_id : uuid &#171;FK&#187;</text><text fill="#000000" font-family="sans-serif" font-size="14" lengthAdjust="spacing" textLength="269.2402" x="354.24" y="128.1826">idempotency_key : varchar(128) &#171;UK&#187;</text><text fill="#000000" font-family="sans-serif" font-size="14" lengthAdjust="spacing" textLength="138.8994" x="354.24" y="144.4795">status : varchar(64)</text><text fill="#000000" font-family="sans-serif" font-size="14" lengthAdjust="spacing" textLength="220.3086" x="354.24" y="160.7764">planned_send_at : timestamptz</text><text fill="#000000" font-family="sans-serif" font-size="14" lengthAdjust="spacing" textLength="173.1475" x="354.24" y="177.0732">started_at : timestamptz</text><text fill="#000000" font-family="sans-serif" font-size="14" lengthAdjust="spacing" textLength="178.2881" x="354.24" y="193.3701">finished_at : timestamptz</text><text fill="#000000" font-family="sans-serif" font-size="14" lengthAdjust="spacing" textLength="142.6523" x="354.24" y="209.667">total_targets : bigint</text><text fill="#000000" font-family="sans-serif" font-size="14" lengthAdjust="spacing" textLength="123.7646" x="354.24" y="225.9639">enqueued : bigint</text><text fill="#000000" font-family="sans-serif" font-size="14" lengthAdjust="spacing" textLength="176.6748" x="354.24" y="242.2607">created_at : timestamptz</text></g><!--class dispatch_target--><g class="entity" data-qualified-name="dispatch_target" data-source-line="54" id="ent0006"><rect fill="#F1F1F1" height="74.8906" rx="2.5" ry="2.5" style="stroke:#181818;stroke-width:0.5;" width="251.4766" x="689.48" y="109.4869"/><text fill="#000000" font-family="sans-serif" font-size="14" lengthAdjust="spacing" textLength="109.4092" x="760.5137" y="127.482">dispatch_target</text><line style="stroke:#181818;stroke-width:0.5;" x1="690.48" x2="939.9566" y1="135.7838" y2="135.7838"/><g data-visibility-modifier="IE_MANDATORY"><ellipse cx="700.48" cy="149.4322" fill="#000000" rx="3" ry="3" style="stroke:#000000;stroke-width:1;"/></g><text fill="#000000" font-family="sans-serif" font-size="14" lengthAdjust="spacing" textLength="188.8496" x="709.48" y="152.7789">dispatch_id : uuid &#171;PK, FK&#187;</text><line style="stroke:#181818;stroke-width:0.5;" x1="690.48" x2="939.9566" y1="160.0806" y2="160.0806"/><g data-visibility-modifier="IE_MANDATORY"><ellipse cx="700.48" cy="173.7291" fill="#000000" rx="3" ry="3" style="stroke:#000000;stroke-width:1;"/></g><text fill="#000000" font-family="sans-serif" font-size="14" lengthAdjust="spacing" textLength="225.4766" x="709.48" y="177.0757">recipient_id : varchar(128) &#171;PK&#187;</text></g><!--class outbox_message--><g class="entity" data-qualified-name="outbox_message" data-source-line="59" id="ent0007"><rect fill="#F1F1F1" height="172.6719" rx="2.5" ry="2.5" style="stroke:#181818;stroke-width:0.5;" width="218.4453" x="706" y="373.5969"/><text fill="#000000" font-family="sans-serif" font-size="14" lengthAdjust="spacing" textLength="118.583" x="755.9312" y="391.592">outbox_message</text><line style="stroke:#181818;stroke-width:0.5;" x1="707" x2="923.4453" y1="399.8938" y2="399.8938"/><g data-visibility-modifier="IE_MANDATORY"><ellipse cx="717" cy="413.5422" fill="#000000" rx="3" ry="3" style="stroke:#000000;stroke-width:1;"/></g><text fill="#000000" font-family="sans-serif" font-size="14" lengthAdjust="spacing" textLength="180.9473" x="726" y="416.8889">outbox_id : bigserial &#171;PK&#187;</text><line style="stroke:#181818;stroke-width:1;" x1="707" x2="923.4453" y1="424.1906" y2="424.1906"/><text fill="#000000" font-family="sans-serif" font-size="14" lengthAdjust="spacing" textLength="206.4453" x="712" y="441.1857">aggregate_type : varchar(64)</text><text fill="#000000" font-family="sans-serif" font-size="14" lengthAdjust="spacing" textLength="187.9473" x="712" y="457.4826">aggregate_id : varchar(64)</text><text fill="#000000" font-family="sans-serif" font-size="14" lengthAdjust="spacing" textLength="182.9365" x="712" y="473.7795">event_type : varchar(128)</text><text fill="#000000" font-family="sans-serif" font-size="14" lengthAdjust="spacing" textLength="106.7979" x="712" y="490.0764">payload : jsonb</text><text fill="#000000" font-family="sans-serif" font-size="14" lengthAdjust="spacing" textLength="107.7412" x="712" y="506.3732">headers : jsonb</text><text fill="#000000" font-family="sans-serif" font-size="14" lengthAdjust="spacing" textLength="176.6748" x="712" y="522.6701">created_at : timestamptz</text><text fill="#000000" font-family="sans-serif" font-size="14" lengthAdjust="spacing" textLength="191.1328" x="712" y="538.967">published_at : timestamptz</text></g><g class="entity" data-qualified-name="GMN14" data-source-line="79" id="ent0015"><path d="M34.55,639.3669 L34.55,664.4997 A0,0 0 0 0 34.55,664.4997 L260.6936,664.4997 A0,0 0 0 0 260.6936,664.4997 L260.6936,649.3669 L250.6936,639.3669 L151.95,639.3669 L147.95,604.7169 L143.95,639.3669 L34.55,639.3669 A0,0 0 0 0 34.55,639.3669" fill="#FEFFDD" style="stroke:#181818;stroke-width:0.5;"/><path d="M250.6936,639.3669 L250.6936,649.3669 L260.6936,649.3669 L250.6936,639.3669" fill="#FEFFDD" style="stroke:#181818;stroke-width:0.5;"/><text fill="#000000" font-family="sans-serif" font-size="13" lengthAdjust="spacing" textLength="205.1436" x="40.55" y="656.4338">UK(client_id, idempotency_key)</text></g><g class="entity" data-qualified-name="GMN17" data-source-line="83" id="ent0018"><path d="M375.13,284.3669 L375.13,309.4997 A0,0 0 0 0 375.13,309.4997 L602.5939,309.4997 A0,0 0 0 0 602.5939,309.4997 L602.5939,294.3669 L592.5939,284.3669 L492.95,284.3669 L488.95,249.8769 L484.95,284.3669 L375.13,284.3669 A0,0 0 0 0 375.13,284.3669" fill="#FEFFDD" style="stroke:#181818;stroke-width:0.5;"/><path d="M592.5939,284.3669 L592.5939,294.3669 L602.5939,294.3669 L592.5939,284.3669" fill="#FEFFDD" style="stroke:#181818;stroke-width:0.5;"/><text fill="#000000" font-family="sans-serif" font-size="13" lengthAdjust="spacing" textLength="206.4639" x="381.13" y="301.4338">UK(event_id, idempotency_key)</text></g><g class="entity" data-qualified-name="GMN20" data-source-line="87" id="ent0021"><path d="M1000.96,439.7969 L1000.96,455.9269 L924.66,459.9269 L1000.96,463.9269 L1000.96,480.0625 A0,0 0 0 0 1000.96,480.0625 L1297.9561,480.0625 A0,0 0 0 0 1297.9561,480.0625 L1297.9561,449.7969 L1287.9561,439.7969 L1000.96,439.7969 A0,0 0 0 0 1000.96,439.7969" fill="#FEFFDD" style="stroke:#181818;stroke-width:0.5;"/><path d="M1287.9561,439.7969 L1287.9561,449.7969 L1297.9561,449.7969 L1287.9561,439.7969" fill="#FEFFDD" style="stroke:#181818;stroke-width:0.5;"/><text fill="#000000" font-family="sans-serif" font-size="13" lengthAdjust="spacing" textLength="275.9961" x="1006.96" y="456.8638">Transactional outbox for Kafka publication</text><text fill="#000000" font-family="sans-serif" font-size="13" lengthAdjust="spacing" textLength="274.2505" x="1006.96" y="471.9966">IDX: created_at where published_at is null</text></g><!--link notification_event to event_audience--><g class="link" data-entity-1="ent0002" data-entity-2="ent0003" data-link-type="association" data-source-line="71" id="lnk8"><path codeLine="71" d="M296.39,397.9269 C323.56,397.9269 335.77,397.9269 362.15,397.9269" fill="none" id="notification_event-event_audience" style="stroke:#181818;stroke-width:1;"/><line style="stroke:#181818;stroke-width:1;" x1="292.39" x2="292.39" y1="401.9269" y2="393.9269"/><line style="stroke:#181818;stroke-width:1;" x1="295.39" x2="295.39" y1="401.9269" y2="393.9269"/><line style="stroke:#181818;stroke-width:1;" x1="296.39" x2="288.39" y1="397.9269" y2="397.9269"/><line style="stroke:#181818;stroke-width:1;" x1="366.15" x2="366.15" y1="393.9269" y2="401.9269"/><line style="stroke:#181818;stroke-width:1;" x1="363.15" x2="363.15" y1="393.9269" y2="401.9269"/><line style="stroke:#181818;stroke-width:1;" x1="362.15" x2="370.15" y1="397.9269" y2="397.9269"/></g><!--link notification_event to event_recipient--><g class="link" data-entity-1="ent0002" data-entity-2="ent0004" data-link-type="crowfoot" data-source-line="72" id="lnk9"><path codeLine="72" d="M296.39,523.9269 C321.08,523.9269 320.63,523.9269 344.89,523.9269" fill="none" id="notification_event-event_recipient" style="stroke:#181818;stroke-width:1;"/><line style="stroke:#181818;stroke-width:1;" x1="292.39" x2="292.39" y1="527.9269" y2="519.9269"/><line style="stroke:#181818;stroke-width:1;" x1="295.39" x2="295.39" y1="527.9269" y2="519.9269"/><line style="stroke:#181818;stroke-width:1;" x1="296.39" x2="288.39" y1="523.9269" y2="523.9269"/><line style="stroke:#181818;stroke-width:1;" x1="354.89" x2="362.89" y1="523.9269" y2="517.9269"/><line style="stroke:#181818;stroke-width:1;" x1="354.89" x2="362.89" y1="523.9269" y2="529.9269"/><line style="stroke:#181818;stroke-width:1;" x1="354.89" x2="362.89" y1="523.9269" y2="523.9269"/><ellipse cx="348.89" cy="523.9269" fill="none" rx="4" ry="4" style="stroke:#181818;stroke-width:1;"/></g><!--link notification_event to dispatch--><g class="link" data-entity-1="ent0002" data-entity-2="ent0005" data-link-type="crowfoot" data-source-line="73" id="lnk10"><path codeLine="73" d="M296.6,330.8669 C333.89,330.8669 355.95,330.8669 355.95,330.8669 C355.95,330.8669 355.95,309.9569 355.95,267.9269" fill="none" id="notification_event-dispatch" style="stroke:#181818;stroke-width:1;"/><line style="stroke:#181818;stroke-width:1;" x1="292.6" x2="292.6" y1="334.8669" y2="326.8669"/><line style="stroke:#181818;stroke-width:1;" x1="295.6" x2="295.6" y1="334.8669" y2="326.8669"/><line style="stroke:#181818;stroke-width:1;" x1="296.6" x2="288.6" y1="330.8669" y2="330.8669"/><line style="stroke:#181818;stroke-width:1;" x1="355.95" x2="349.95" y1="257.9269" y2="249.9269"/><line style="stroke:#181818;stroke-width:1;" x1="355.95" x2="361.95" y1="257.9269" y2="249.9269"/><line style="stroke:#181818;stroke-width:1;" x1="355.95" x2="355.95" y1="257.9269" y2="249.9269"/><ellipse cx="355.95" cy="263.9269" fill="none" rx="4" ry="4" style="stroke:#181818;stroke-width:1;"/></g><!--link dispatch to dispatch_target--><g class="link" data-entity-1="ent0005" data-entity-2="ent0006" data-link-type="crowfoot" data-source-line="74" id="lnk11"><path codeLine="74" d="M637.63,146.9269 C657.39,146.9269 651.59,146.9269 671.05,146.9269" fill="none" id="dispatch-dispatch_target" style="stroke:#181818;stroke-width:1;"/><line style="stroke:#181818;stroke-width:1;" x1="633.63" x2="633.63" y1="150.9269" y2="142.9269"/><line style="stroke:#181818;stroke-width:1;" x1="636.63" x2="636.63" y1="150.9269" y2="142.9269"/><line style="stroke:#181818;stroke-width:1;" x1="637.63" x2="629.63" y1="146.9269" y2="146.9269"/><line style="stroke:#181818;stroke-width:1;" x1="681.05" x2="689.05" y1="146.9269" y2="140.9269"/><line style="stroke:#181818;stroke-width:1;" x1="681.05" x2="689.05" y1="146.9269" y2="152.9269"/><line style="stroke:#181818;stroke-width:1;" x1="681.05" x2="689.05" y1="146.9269" y2="146.9269"/><ellipse cx="675.05" cy="146.9269" fill="none" rx="4" ry="4" style="stroke:#181818;stroke-width:1;"/></g><!--link notification_event to outbox_message--><g class="link" data-entity-1="ent0002" data-entity-2="ent0007" data-link-type="dependency" data-source-line="75" id="lnk12"><path codeLine="75" d="M288.38,469.0769 C412.81,469.0769 585.75,469.0769 699.74,469.0769" fill="none" id="notification_event-to-outbox_message" style="stroke:#181818;stroke-width:1;stroke-dasharray:7,7;"/><polygon fill="#181818" points="705.74,469.0769,696.74,465.0769,700.74,469.0769,696.74,473.0769,705.74,469.0769" style="stroke:#181818;stroke-width:1;"/><text fill="#000000" font-family="sans-serif" font-size="13" lengthAdjust="spacing" textLength="93.355" x="501.9543" y="458.6438">EventCreated/</text><text fill="#000000" font-family="sans-serif" font-size="13" lengthAdjust="spacing" textLength="96.9541" x="500.1547" y="473.7766">EventUpdated/</text><text fill="#000000" font-family="sans-serif" font-size="13" lengthAdjust="spacing" textLength="101.1436" x="498.06" y="488.9094">EventCancelled</text></g><!--link dispatch to outbox_message--><g class="link" data-entity-1="ent0005" data-entity-2="ent0007" data-link-type="dependency" data-source-line="76" id="lnk13"><path codeLine="76" d="M621.95,250.0369 C621.95,324.7269 621.95,412.6369 621.95,412.6369 C621.95,412.6369 655.98,412.6369 699.6,412.6369" fill="none" id="dispatch-to-outbox_message" style="stroke:#181818;stroke-width:1;stroke-dasharray:7,7;"/><polygon fill="#181818" points="705.6,412.6369,696.6,408.6369,700.6,412.6369,696.6,416.6369,705.6,412.6369" style="stroke:#181818;stroke-width:1;"/><text fill="#000000" font-family="sans-serif" font-size="13" lengthAdjust="spacing" textLength="113.2104" x="644.6177" y="354.2238">DispatchCreated/</text><text fill="#000000" font-family="sans-serif" font-size="13" lengthAdjust="spacing" textLength="156.5459" x="622.95" y="369.3566">DispatchStatusChanged</text></g><?plantuml-src dLPDJzn03BtdLumu0MAfG6rLhH0NA595LL5Hf1ugHTx4IQRCpgGp3dJByj_hP99iFYdgPNVZPpzxx3VEAan8a15MfXc9M5gCI1eTk7kfSx2m5Yw3s3nAdOe4bCCEegH6skGeZANC19cCKKJIHWg3W2Gf55yCoKH6K5AAAuY0FMwCezJYxTVFGO2Q_JPYJtVyGdnWyvu09yPcyHG8SIYgtw6CnL8K1N-TdTrSdvypj5ZmHwHa3sOJbxRE3Q6EDk4zRXXu01jbOFTFJZySSFoTZoTsKq3eWxi-NV01hIjFj1HI4mEvbSQM1zc5l7zxK06OeBKOXspK6jN8mv5bnfIhaZeUer66SQ4u7eX1acjq1EkS_bIXG8KRvuIDCb1o_NH6hyf-W8vGpR1uCBG8hZfHG_RkvBHaYnYWwSWYZwUXvzrW_Q2WY7aY4LP3xPjU6EYHkEeCTRe_6dAN6GfP7x5qEL2KiTFA68MWImTCrorpRvoZ8bdvCfUDz0QsrvHvA5htSRv6efsqJS5LlhPwdwXvdDNuk9AwYjSgVKuzgjHf73hKSwApCtf8f9OkcyR84AYGOrEaCkbAflxgeFvLO85nrpQhkOdcrPoz7jQsbrlvtsCp1QtCxv2hSf1wIVTDTTxQAEkZERGIr62AaF8cJCkLKktHuJ1si1nhtojW45Tlgl4Eo91thtNThJ1_i_DYfMP6oOsOsChRxMAntGwkzfoZUHhUhXSyc-a5xGKP0FMmfoYEZy-7ercAZoLquS_-veUk7k_y9ciUBvfzkKiwINLPepksnd9RNQuBtlafivIr8Iyb8hCM9fbuhN7Fxwxts_VMqV0M7x3wuZ8EHsHjWogAPYtycy6_y9cWVooc-MP1EwZ-1h1WFImIOyKr9FVWnU6BP-TFbz-NNIazPcYnBo39B_92gRQ0lm00?></g></svg>