<svg xmlns="http://www.w3.org/2000/svg" xmlns:xlink="http://www.w3.org/1999/xlink" contentStyleType="text/css" data-diagram-type="DESCRIPTION" height="881px" preserveAspectRatio="none" style="width:627px;height:881px;background:#FFFFFF;" version="1.1" viewBox="0 0 627 881" width="627px" zoomAndPan="magnify"><?plantuml 1.2026.3?><defs/><g><g class="title" data-source-line="7"><text fill="#000000" font-family="sans-serif" font-size="14" font-weight="700" lengthAdjust="spacing" textLength="140.916" x="240.0078" y="22.9951">Storage Overview</text></g><!--entity facade--><g class="entity" data-qualified-name="facade" data-source-line="9" id="ent0002"><rect fill="#F1F1F1" height="36.2969" rx="2.5" ry="2.5" style="stroke:#181818;stroke-width:0.5;" width="155.1875" x="23.76" y="707.7128"/><text fill="#000000" font-family="sans-serif" font-size="14" lengthAdjust="spacing" textLength="80.3291" x="33.76" y="730.7079">Notification</text><text fill="#000000" font-family="sans-serif" font-size="14" lengthAdjust="spacing" textLength="4.4502" x="114.0891" y="730.7079">&#160;</text><text fill="#000000" font-family="sans-serif" font-size="14" lengthAdjust="spacing" textLength="50.4082" x="118.5393" y="730.7079">Facade</text></g><!--entity dispatcher--><g class="entity" data-qualified-name="dispatcher" data-source-line="10" id="ent0003"><rect fill="#F1F1F1" height="36.2969" rx="2.5" ry="2.5" style="stroke:#181818;stroke-width:0.5;" width="158.4209" x="22.15" y="605.7128"/><text fill="#000000" font-family="sans-serif" font-size="14" lengthAdjust="spacing" textLength="58.1123" x="32.15" y="628.7079">Delivery</text><text fill="#000000" font-family="sans-serif" font-size="14" lengthAdjust="spacing" textLength="4.4502" x="90.2623" y="628.7079">&#160;</text><text fill="#000000" font-family="sans-serif" font-size="14" lengthAdjust="spacing" textLength="75.8584" x="94.7125" y="628.7079">Dispatcher</text></g><!--entity profile--><g class="entity" data-qualified-name="profile" data-source-line="11" id="ent0004"><rect fill="#F1F1F1" height="36.2969" rx="2.5" ry="2.5" style="stroke:#181818;stroke-width:0.5;" width="126.0186" x="38.35" y="508.7128"/><text fill="#000000" font-family="sans-serif" font-size="14" lengthAdjust="spacing" textLength="44.085" x="48.35" y="531.7079">Profile</text><text fill="#000000" font-family="sans-serif" font-size="14" lengthAdjust="spacing" textLength="4.4502" x="92.435" y="531.7079">&#160;</text><text fill="#000000" font-family="sans-serif" font-size="14" lengthAdjust="spacing" textLength="57.4834" x="96.8852" y="531.7079">Consent</text></g><!--entity templates--><g class="entity" data-qualified-name="templates" data-source-line="12" id="ent0005"><rect fill="#F1F1F1" height="36.2969" rx="2.5" ry="2.5" style="stroke:#181818;stroke-width:0.5;" width="148.6523" x="27.03" y="406.7128"/><text fill="#000000" font-family="sans-serif" font-size="14" lengthAdjust="spacing" textLength="66.2607" x="37.03" y="429.7079">Template</text><text fill="#000000" font-family="sans-serif" font-size="14" lengthAdjust="spacing" textLength="4.4502" x="103.2907" y="429.7079">&#160;</text><text fill="#000000" font-family="sans-serif" font-size="14" lengthAdjust="spacing" textLength="57.9414" x="107.7409" y="429.7079">Registry</text></g><!--entity history--><g class="entity" data-qualified-name="history" data-source-line="13" id="ent0006"><rect fill="#F1F1F1" height="36.2969" rx="2.5" ry="2.5" style="stroke:#181818;stroke-width:0.5;" width="117.6035" x="42.55" y="309.7128"/><text fill="#000000" font-family="sans-serif" font-size="14" lengthAdjust="spacing" textLength="49.8066" x="52.55" y="332.7079">History</text><text fill="#000000" font-family="sans-serif" font-size="14" lengthAdjust="spacing" textLength="4.4502" x="102.3566" y="332.7079">&#160;</text><text fill="#000000" font-family="sans-serif" font-size="14" lengthAdjust="spacing" textLength="43.3467" x="106.8068" y="332.7079">Writer</text></g><!--entity cancellation--><g class="entity" data-qualified-name="cancellation" data-source-line="14" id="ent0007"><rect fill="#F1F1F1" height="36.2969" rx="2.5" ry="2.5" style="stroke:#181818;stroke-width:0.5;" width="162.9053" x="19.9" y="222.7128"/><text fill="#000000" font-family="sans-serif" font-size="14" lengthAdjust="spacing" textLength="86.7139" x="29.9" y="245.7079">Cancellation</text><text fill="#000000" font-family="sans-serif" font-size="14" lengthAdjust="spacing" textLength="4.4502" x="116.6139" y="245.7079">&#160;</text><text fill="#000000" font-family="sans-serif" font-size="14" lengthAdjust="spacing" textLength="51.7412" x="121.0641" y="245.7079">Service</text></g><!--entity mail--><g class="entity" data-qualified-name="mail" data-source-line="15" id="ent0008"><rect fill="#F1F1F1" height="36.2969" rx="2.5" ry="2.5" style="stroke:#181818;stroke-width:0.5;" width="187.2959" x="7.71" y="135.7128"/><text fill="#000000" font-family="sans-serif" font-size="14" lengthAdjust="spacing" textLength="80.3291" x="17.71" y="158.7079">Notification</text><text fill="#000000" font-family="sans-serif" font-size="14" lengthAdjust="spacing" textLength="4.4502" x="98.0391" y="158.7079">&#160;</text><text fill="#000000" font-family="sans-serif" font-size="14" lengthAdjust="spacing" textLength="28.4375" x="102.4893" y="158.7079">Mail</text><text fill="#000000" font-family="sans-serif" font-size="14" lengthAdjust="spacing" textLength="4.4502" x="130.9268" y="158.7079">&#160;</text><text fill="#000000" font-family="sans-serif" font-size="14" lengthAdjust="spacing" textLength="49.6289" x="135.377" y="158.7079">Sender</text></g><!--entity sms--><g class="entity" data-qualified-name="sms" data-source-line="16" id="ent0009"><rect fill="#F1F1F1" height="36.2969" rx="2.5" ry="2.5" style="stroke:#181818;stroke-width:0.5;" width="188.7109" x="7" y="57.7128"/><text fill="#000000" font-family="sans-serif" font-size="14" lengthAdjust="spacing" textLength="80.3291" x="17" y="80.7079">Notification</text><text fill="#000000" font-family="sans-serif" font-size="14" lengthAdjust="spacing" textLength="4.4502" x="97.3291" y="80.7079">&#160;</text><text fill="#000000" font-family="sans-serif" font-size="14" lengthAdjust="spacing" textLength="29.8525" x="101.7793" y="80.7079">SMS</text><text fill="#000000" font-family="sans-serif" font-size="14" lengthAdjust="spacing" textLength="4.4502" x="131.6318" y="80.7079">&#160;</text><text fill="#000000" font-family="sans-serif" font-size="14" lengthAdjust="spacing" textLength="49.6289" x="136.082" y="80.7079">Sender</text></g><!--entity facadeDb--><g class="entity" data-qualified-name="facadeDb" data-source-line="18" id="ent0010"><path d="M419.52,705.0728 C419.52,695.0728 497.3257,695.0728 497.3257,695.0728 C497.3257,695.0728 575.1313,695.0728 575.1313,705.0728 L575.1313,746.6665 C575.1313,756.6665 497.3257,756.6665 497.3257,756.6665 C497.3257,756.6665 419.52,756.6665 419.52,746.6665 L419.52,705.0728" fill="#F1F1F1" style="stroke:#181818;stroke-width:0.5;"/><path d="M419.52,705.0728 C419.52,715.0728 497.3257,715.0728 497.3257,715.0728 C497.3257,715.0728 575.1313,715.0728 575.1313,705.0728" fill="none" style="stroke:#181818;stroke-width:0.5;"/><text fill="#000000" font-family="sans-serif" font-size="14" font-style="italic" lengthAdjust="spacing" textLength="98.0342" x="448.3086" y="732.0679">&#171;PostgreSQL&#187;</text><text fill="#000000" font-family="sans-serif" font-size="14" lengthAdjust="spacing" textLength="50.4082" x="429.52" y="748.3648">Facade</text><text fill="#000000" font-family="sans-serif" font-size="14" lengthAdjust="spacing" textLength="4.4502" x="479.9282" y="748.3648">&#160;</text><text fill="#000000" font-family="sans-serif" font-size="14" lengthAdjust="spacing" textLength="80.7529" x="484.3784" y="748.3648">PostgreSQL</text></g><!--entity dispatcherDb--><g class="entity" data-qualified-name="dispatcherDb" data-source-line="19" id="ent0011"><path d="M406.79,603.0728 C406.79,593.0728 497.3208,593.0728 497.3208,593.0728 C497.3208,593.0728 587.8515,593.0728 587.8515,603.0728 L587.8515,644.6665 C587.8515,654.6665 497.3208,654.6665 497.3208,654.6665 C497.3208,654.6665 406.79,654.6665 406.79,644.6665 L406.79,603.0728" fill="#F1F1F1" style="stroke:#181818;stroke-width:0.5;"/><path d="M406.79,603.0728 C406.79,613.0728 497.3208,613.0728 497.3208,613.0728 C497.3208,613.0728 587.8515,613.0728 587.8515,603.0728" fill="none" style="stroke:#181818;stroke-width:0.5;"/><text fill="#000000" font-family="sans-serif" font-size="14" font-style="italic" lengthAdjust="spacing" textLength="98.0342" x="448.3037" y="630.0679">&#171;PostgreSQL&#187;</text><text fill="#000000" font-family="sans-serif" font-size="14" lengthAdjust="spacing" textLength="75.8584" x="416.79" y="646.3648">Dispatcher</text><text fill="#000000" font-family="sans-serif" font-size="14" lengthAdjust="spacing" textLength="4.4502" x="492.6484" y="646.3648">&#160;</text><text fill="#000000" font-family="sans-serif" font-size="14" lengthAdjust="spacing" textLength="80.7529" x="497.0986" y="646.3648">PostgreSQL</text></g><!--entity profileDb--><g class="entity" data-qualified-name="profileDb" data-source-line="20" id="ent0012"><path d="M391.71,506.0728 C391.71,496.0728 497.3208,496.0728 497.3208,496.0728 C497.3208,496.0728 602.9317,496.0728 602.9317,506.0728 L602.9317,547.6665 C602.9317,557.6665 497.3208,557.6665 497.3208,557.6665 C497.3208,557.6665 391.71,557.6665 391.71,547.6665 L391.71,506.0728" fill="#F1F1F1" style="stroke:#181818;stroke-width:0.5;"/><path d="M391.71,506.0728 C391.71,516.0728 497.3208,516.0728 497.3208,516.0728 C497.3208,516.0728 602.9317,516.0728 602.9317,506.0728" fill="none" style="stroke:#181818;stroke-width:0.5;"/><text fill="#000000" font-family="sans-serif" font-size="14" font-style="italic" lengthAdjust="spacing" textLength="98.0342" x="448.3038" y="533.0679">&#171;PostgreSQL&#187;</text><text fill="#000000" font-family="sans-serif" font-size="14" lengthAdjust="spacing" textLength="44.085" x="401.71" y="549.3648">Profile</text><text fill="#000000" font-family="sans-serif" font-size="14" lengthAdjust="spacing" textLength="4.4502" x="445.795" y="549.3648">&#160;</text><text fill="#000000" font-family="sans-serif" font-size="14" lengthAdjust="spacing" textLength="57.4834" x="450.2452" y="549.3648">Consent</text><text fill="#000000" font-family="sans-serif" font-size="14" lengthAdjust="spacing" textLength="4.4502" x="507.7286" y="549.3648">&#160;</text><text fill="#000000" font-family="sans-serif" font-size="14" lengthAdjust="spacing" textLength="80.7529" x="512.1788" y="549.3648">PostgreSQL</text></g><!--entity mongo--><g class="entity" data-qualified-name="mongo" data-source-line="21" id="ent0013"><path d="M414.64,404.0728 C414.64,394.0728 497.3197,394.0728 497.3197,394.0728 C497.3197,394.0728 579.9994,394.0728 579.9994,404.0728 L579.9994,445.6665 C579.9994,455.6665 497.3197,455.6665 497.3197,455.6665 C497.3197,455.6665 414.64,455.6665 414.64,445.6665 L414.64,404.0728" fill="#F1F1F1" style="stroke:#181818;stroke-width:0.5;"/><path d="M414.64,404.0728 C414.64,414.0728 497.3197,414.0728 497.3197,414.0728 C497.3197,414.0728 579.9994,414.0728 579.9994,404.0728" fill="none" style="stroke:#181818;stroke-width:0.5;"/><text fill="#000000" font-family="sans-serif" font-size="14" font-style="italic" lengthAdjust="spacing" textLength="84.6357" x="455.0018" y="431.0679">&#171;MongoDB&#187;</text><text fill="#000000" font-family="sans-serif" font-size="14" lengthAdjust="spacing" textLength="67.3545" x="424.64" y="447.3648">MongoDB</text><text fill="#000000" font-family="sans-serif" font-size="14" lengthAdjust="spacing" textLength="4.4502" x="491.9945" y="447.3648">&#160;</text><text fill="#000000" font-family="sans-serif" font-size="14" lengthAdjust="spacing" textLength="73.5547" x="496.4447" y="447.3648">Templates</text></g><!--entity clickhouse--><g class="entity" data-qualified-name="clickhouse" data-source-line="22" id="ent0014"><path d="M400.7,307.0728 C400.7,297.0728 497.325,297.0728 497.325,297.0728 C497.325,297.0728 593.95,297.0728 593.95,307.0728 L593.95,348.6665 C593.95,358.6665 497.325,358.6665 497.325,358.6665 C497.325,358.6665 400.7,358.6665 400.7,348.6665 L400.7,307.0728" fill="#F1F1F1" style="stroke:#181818;stroke-width:0.5;"/><path d="M400.7,307.0728 C400.7,317.0728 497.325,317.0728 497.325,317.0728 C497.325,317.0728 593.95,317.0728 593.95,307.0728" fill="none" style="stroke:#181818;stroke-width:0.5;"/><text fill="#000000" font-family="sans-serif" font-size="14" font-style="italic" lengthAdjust="spacing" textLength="94.5137" x="450.0682" y="334.0679">&#171;ClickHouse&#187;</text><text fill="#000000" font-family="sans-serif" font-size="14" lengthAdjust="spacing" textLength="77.2324" x="410.7" y="350.3648">ClickHouse</text><text fill="#000000" font-family="sans-serif" font-size="14" lengthAdjust="spacing" textLength="4.4502" x="487.9324" y="350.3648">&#160;</text><text fill="#000000" font-family="sans-serif" font-size="14" lengthAdjust="spacing" textLength="49.8066" x="492.3826" y="350.3648">History</text><text fill="#000000" font-family="sans-serif" font-size="14" lengthAdjust="spacing" textLength="4.4502" x="542.1893" y="350.3648">&#160;</text><text fill="#000000" font-family="sans-serif" font-size="14" lengthAdjust="spacing" textLength="37.3105" x="546.6395" y="350.3648">Store</text></g><!--entity cancelRedis--><g class="entity" data-qualified-name="cancelRedis" data-source-line="23" id="ent0015"><path d="M404.4,219.5728 L590.2408,219.5728 C595.2408,219.5728 595.2408,240.8697 595.2408,240.8697 C595.2408,240.8697 595.2408,262.1665 590.2408,262.1665 L404.4,262.1665 C399.4,262.1665 399.4,240.8697 399.4,240.8697 C399.4,240.8697 399.4,219.5728 404.4,219.5728" fill="#F1F1F1" style="stroke:#181818;stroke-width:0.5;"/><path d="M590.2408,219.5728 C585.2408,219.5728 585.2408,240.8697 585.2408,240.8697 C585.2408,262.1665 590.2408,262.1665 590.2408,262.1665" fill="none" style="stroke:#181818;stroke-width:0.5;"/><text fill="#000000" font-family="sans-serif" font-size="14" font-style="italic" lengthAdjust="spacing" textLength="55.6924" x="464.4742" y="237.5679">&#171;Redis&#187;</text><text fill="#000000" font-family="sans-serif" font-size="14" lengthAdjust="spacing" textLength="38.4111" x="404.4" y="253.8648">Redis</text><text fill="#000000" font-family="sans-serif" font-size="14" lengthAdjust="spacing" textLength="4.4502" x="442.8111" y="253.8648">&#160;</text><text fill="#000000" font-family="sans-serif" font-size="14" lengthAdjust="spacing" textLength="86.7139" x="447.2613" y="253.8648">Cancellation</text><text fill="#000000" font-family="sans-serif" font-size="14" lengthAdjust="spacing" textLength="4.4502" x="533.9752" y="253.8648">&#160;</text><text fill="#000000" font-family="sans-serif" font-size="14" lengthAdjust="spacing" textLength="41.8154" x="538.4254" y="253.8648">Marks</text></g><!--entity mailRedis--><g class="entity" data-qualified-name="mailRedis" data-source-line="24" id="ent0016"><path d="M431.43,132.5728 L563.2191,132.5728 C568.2191,132.5728 568.2191,153.8697 568.2191,153.8697 C568.2191,153.8697 568.2191,175.1665 563.2191,175.1665 L431.43,175.1665 C426.43,175.1665 426.43,153.8697 426.43,153.8697 C426.43,153.8697 426.43,132.5728 431.43,132.5728" fill="#F1F1F1" style="stroke:#181818;stroke-width:0.5;"/><path d="M563.2191,132.5728 C558.2191,132.5728 558.2191,153.8697 558.2191,153.8697 C558.2191,175.1665 563.2191,175.1665 563.2191,175.1665" fill="none" style="stroke:#181818;stroke-width:0.5;"/><text fill="#000000" font-family="sans-serif" font-size="14" font-style="italic" lengthAdjust="spacing" textLength="55.6924" x="464.4783" y="150.5679">&#171;Redis&#187;</text><text fill="#000000" font-family="sans-serif" font-size="14" lengthAdjust="spacing" textLength="38.4111" x="431.43" y="166.8648">Redis</text><text fill="#000000" font-family="sans-serif" font-size="14" lengthAdjust="spacing" textLength="4.4502" x="469.8411" y="166.8648">&#160;</text><text fill="#000000" font-family="sans-serif" font-size="14" lengthAdjust="spacing" textLength="28.4375" x="474.2913" y="166.8648">Mail</text><text fill="#000000" font-family="sans-serif" font-size="14" lengthAdjust="spacing" textLength="4.4502" x="502.7288" y="166.8648">&#160;</text><text fill="#000000" font-family="sans-serif" font-size="14" lengthAdjust="spacing" textLength="46.04" x="507.179" y="166.8648">Dedup</text></g><!--entity smsRedis--><g class="entity" data-qualified-name="smsRedis" data-source-line="25" id="ent0017"><path d="M430.72,54.5728 L563.9241,54.5728 C568.9241,54.5728 568.9241,75.8697 568.9241,75.8697 C568.9241,75.8697 568.9241,97.1665 563.9241,97.1665 L430.72,97.1665 C425.72,97.1665 425.72,75.8697 425.72,75.8697 C425.72,75.8697 425.72,54.5728 430.72,54.5728" fill="#F1F1F1" style="stroke:#181818;stroke-width:0.5;"/><path d="M563.9241,54.5728 C558.9241,54.5728 558.9241,75.8697 558.9241,75.8697 C558.9241,97.1665 563.9241,97.1665 563.9241,97.1665" fill="none" style="stroke:#181818;stroke-width:0.5;"/><text fill="#000000" font-family="sans-serif" font-size="14" font-style="italic" lengthAdjust="spacing" textLength="55.6924" x="464.4759" y="72.5679">&#171;Redis&#187;</text><text fill="#000000" font-family="sans-serif" font-size="14" lengthAdjust="spacing" textLength="38.4111" x="430.72" y="88.8648">Redis</text><text fill="#000000" font-family="sans-serif" font-size="14" lengthAdjust="spacing" textLength="4.4502" x="469.1311" y="88.8648">&#160;</text><text fill="#000000" font-family="sans-serif" font-size="14" lengthAdjust="spacing" textLength="29.8525" x="473.5813" y="88.8648">SMS</text><text fill="#000000" font-family="sans-serif" font-size="14" lengthAdjust="spacing" textLength="4.4502" x="503.4339" y="88.8648">&#160;</text><text fill="#000000" font-family="sans-serif" font-size="14" lengthAdjust="spacing" textLength="46.04" x="507.8841" y="88.8648">Dedup</text></g><!--link facade to facadeDb--><g class="link" data-entity-1="ent0002" data-entity-2="ent0010" data-link-type="dependency" data-source-line="27" id="lnk18"><path d="M179.34,728.0228 C194.7,728.3728 210.72,728.6828 225.71,728.8628 C286.15,729.6028 301.27,729.5428 361.71,728.8628 C380.29,728.6628 394.3214,728.4238 413.0914,728.0138" fill="none" id="facade-to-facadeDb" style="stroke:#181818;stroke-width:1;"/><polygon fill="#181818" points="419.09,727.8828,410.0048,724.0803,414.0912,727.992,410.1795,732.0784,419.09,727.8828" style="stroke:#181818;stroke-width:1;"/><text fill="#000000" font-family="sans-serif" font-size="13" lengthAdjust="spacing" textLength="33.5981" x="277.0049" y="679.9297">owns</text><text fill="#000000" font-family="sans-serif" font-size="13" lengthAdjust="spacing" textLength="73.106" x="231.2193" y="695.0625">notification</text><text fill="#000000" font-family="sans-serif" font-size="13" lengthAdjust="spacing" textLength="4.1323" x="304.3252" y="695.0625">&#160;</text><text fill="#000000" font-family="sans-serif" font-size="13" lengthAdjust="spacing" textLength="47.9312" x="308.4576" y="695.0625">events,</text><text fill="#000000" font-family="sans-serif" font-size="13" lengthAdjust="spacing" textLength="63.5845" x="230.21" y="710.1953">audience,</text><text fill="#000000" font-family="sans-serif" font-size="13" lengthAdjust="spacing" textLength="4.1323" x="293.7945" y="710.1953">&#160;</text><text fill="#000000" font-family="sans-serif" font-size="13" lengthAdjust="spacing" textLength="59.4712" x="297.9268" y="710.1953">dispatch,</text><text fill="#000000" font-family="sans-serif" font-size="13" lengthAdjust="spacing" textLength="45.189" x="271.2095" y="725.3281">outbox</text></g><!--link dispatcher to dispatcherDb--><g class="link" data-entity-1="ent0003" data-entity-2="ent0011" data-link-type="dependency" data-source-line="28" id="lnk19"><path d="M180.66,623.8628 C245.74,623.8628 332.36,623.8628 400.45,623.8628" fill="none" id="dispatcher-to-dispatcherDb" style="stroke:#181818;stroke-width:1;"/><polygon fill="#181818" points="406.45,623.8628,397.45,619.8628,401.45,623.8628,397.45,627.8628,406.45,623.8628" style="stroke:#181818;stroke-width:1;"/><text fill="#000000" font-family="sans-serif" font-size="13" lengthAdjust="spacing" textLength="33.5981" x="277.0787" y="589.9297">owns</text><text fill="#000000" font-family="sans-serif" font-size="13" lengthAdjust="spacing" textLength="66.5107" x="241.4873" y="605.0625">scheduled</text><text fill="#000000" font-family="sans-serif" font-size="13" lengthAdjust="spacing" textLength="4.1323" x="307.9981" y="605.0625">&#160;</text><text fill="#000000" font-family="sans-serif" font-size="13" lengthAdjust="spacing" textLength="34.1377" x="312.1304" y="605.0625">tasks</text><text fill="#000000" font-family="sans-serif" font-size="13" lengthAdjust="spacing" textLength="24.4575" x="226.71" y="620.1953">and</text><text fill="#000000" font-family="sans-serif" font-size="13" lengthAdjust="spacing" textLength="4.1323" x="251.1675" y="620.1953">&#160;</text><text fill="#000000" font-family="sans-serif" font-size="13" lengthAdjust="spacing" textLength="68.6816" x="255.2998" y="620.1953">dispatcher</text><text fill="#000000" font-family="sans-serif" font-size="13" lengthAdjust="spacing" textLength="4.1323" x="323.9815" y="620.1953">&#160;</text><text fill="#000000" font-family="sans-serif" font-size="13" lengthAdjust="spacing" textLength="32.9316" x="328.1138" y="620.1953">state</text></g><!--link profile to profileDb--><g class="link" data-entity-1="ent0004" data-entity-2="ent0012" data-link-type="dependency" data-source-line="29" id="lnk20"><path d="M164.79,528.6828 C184.3,529.1628 205.9,529.6228 225.71,529.8628 C286.15,530.6028 301.27,530.5428 361.71,529.8628 C371.29,529.7628 375.261,529.721 385.241,529.541" fill="none" id="profile-to-profileDb" style="stroke:#181818;stroke-width:1;"/><polygon fill="#181818" points="391.24,529.4328,382.1693,525.5957,386.2408,529.523,382.3136,533.5944,391.24,529.4328" style="stroke:#181818;stroke-width:1;"/><text fill="#000000" font-family="sans-serif" font-size="13" lengthAdjust="spacing" textLength="33.5981" x="277.3743" y="480.9297">owns</text><text fill="#000000" font-family="sans-serif" font-size="13" lengthAdjust="spacing" textLength="57.3003" x="237.3301" y="496.0625">recipient</text><text fill="#000000" font-family="sans-serif" font-size="13" lengthAdjust="spacing" textLength="4.1323" x="294.6304" y="496.0625">&#160;</text><text fill="#000000" font-family="sans-serif" font-size="13" lengthAdjust="spacing" textLength="52.2539" x="298.7627" y="496.0625">profiles,</text><text fill="#000000" font-family="sans-serif" font-size="13" lengthAdjust="spacing" textLength="51.4414" x="235.21" y="511.1953">channel</text><text fill="#000000" font-family="sans-serif" font-size="13" lengthAdjust="spacing" textLength="4.1323" x="286.6514" y="511.1953">&#160;</text><text fill="#000000" font-family="sans-serif" font-size="13" lengthAdjust="spacing" textLength="62.353" x="290.7837" y="511.1953">consents,</text><text fill="#000000" font-family="sans-serif" font-size="13" lengthAdjust="spacing" textLength="79.6123" x="254.3672" y="526.3281">destinations</text></g><!--link templates to mongo--><g class="link" data-entity-1="ent0005" data-entity-2="ent0013" data-link-type="dependency" data-source-line="30" id="lnk21"><path d="M176,424.8628 C243.7,424.8628 337.93,424.8628 408.2,424.8628" fill="none" id="templates-to-mongo" style="stroke:#181818;stroke-width:1;"/><polygon fill="#181818" points="414.2,424.8628,405.2,420.8628,409.2,424.8628,405.2,428.8628,414.2,424.8628" style="stroke:#181818;stroke-width:1;"/><text fill="#000000" font-family="sans-serif" font-size="13" lengthAdjust="spacing" textLength="33.5981" x="276.9344" y="390.9297">owns</text><text fill="#000000" font-family="sans-serif" font-size="13" lengthAdjust="spacing" textLength="65.457" x="246.71" y="406.0625">templates</text><text fill="#000000" font-family="sans-serif" font-size="13" lengthAdjust="spacing" textLength="4.1323" x="312.167" y="406.0625">&#160;</text><text fill="#000000" font-family="sans-serif" font-size="13" lengthAdjust="spacing" textLength="24.4575" x="316.2994" y="406.0625">and</text><text fill="#000000" font-family="sans-serif" font-size="13" lengthAdjust="spacing" textLength="54.3867" x="266.5401" y="421.1953">versions</text></g><!--link history to clickhouse--><g class="link" data-entity-1="ent0006" data-entity-2="ent0014" data-link-type="dependency" data-source-line="31" id="lnk22"><path d="M160.4,329.5728 C181.02,330.0928 204.4,330.6028 225.71,330.8628 C286.15,331.6028 301.27,331.5428 361.71,330.8628 C374.22,330.7228 381.3711,330.6282 394.3611,330.3782" fill="none" id="history-to-clickhouse" style="stroke:#181818;stroke-width:1;"/><polygon fill="#181818" points="400.36,330.2628,391.2847,326.4367,395.3609,330.359,391.4386,334.4352,400.36,330.2628" style="stroke:#181818;stroke-width:1;"/><text fill="#000000" font-family="sans-serif" font-size="13" lengthAdjust="spacing" textLength="33.5981" x="276.9351" y="296.9297">owns</text><text fill="#000000" font-family="sans-serif" font-size="13" lengthAdjust="spacing" textLength="52.2031" x="243.21" y="312.0625">delivery</text><text fill="#000000" font-family="sans-serif" font-size="13" lengthAdjust="spacing" textLength="4.1323" x="295.4131" y="312.0625">&#160;</text><text fill="#000000" font-family="sans-serif" font-size="13" lengthAdjust="spacing" textLength="44.7129" x="299.5454" y="312.0625">history</text><text fill="#000000" font-family="sans-serif" font-size="13" lengthAdjust="spacing" textLength="29.561" x="256.648" y="327.1953">read</text><text fill="#000000" font-family="sans-serif" font-size="13" lengthAdjust="spacing" textLength="4.1323" x="286.209" y="327.1953">&#160;</text><text fill="#000000" font-family="sans-serif" font-size="13" lengthAdjust="spacing" textLength="40.479" x="290.3413" y="327.1953">model</text></g><!--link cancellation to cancelRedis--><g class="link" data-entity-1="ent0007" data-entity-2="ent0015" data-link-type="dependency" data-source-line="32" id="lnk23"><path d="M183.3,243.1128 C197.44,243.4328 212,243.7028 225.71,243.8628 C286.15,244.6028 301.27,244.5428 361.71,243.8628 C373.75,243.7328 380.3911,243.6478 392.9111,243.4078" fill="none" id="cancellation-to-cancelRedis" style="stroke:#181818;stroke-width:1;"/><polygon fill="#181818" points="398.91,243.2928,389.835,239.466,393.9109,243.3886,389.9883,247.4646,398.91,243.2928" style="stroke:#181818;stroke-width:1;"/><text fill="#000000" font-family="sans-serif" font-size="13" lengthAdjust="spacing" textLength="33.5981" x="277.3345" y="209.9297">owns</text><text fill="#000000" font-family="sans-serif" font-size="13" lengthAdjust="spacing" textLength="23.1245" x="241.21" y="225.0625">TTL</text><text fill="#000000" font-family="sans-serif" font-size="13" lengthAdjust="spacing" textLength="4.1323" x="264.3345" y="225.0625">&#160;</text><text fill="#000000" font-family="sans-serif" font-size="13" lengthAdjust="spacing" textLength="78.5903" x="268.4668" y="225.0625">cancellation</text><text fill="#000000" font-family="sans-serif" font-size="13" lengthAdjust="spacing" textLength="40.2759" x="273.9956" y="240.1953">marks</text></g><!--link mail to mailRedis--><g class="link" data-entity-1="ent0008" data-entity-2="ent0016" data-link-type="dependency" data-source-line="33" id="lnk24"><path d="M195.22,153.8628 C265.86,153.8628 355.56,153.8628 419.94,153.8628" fill="none" id="mail-to-mailRedis" style="stroke:#181818;stroke-width:1;"/><polygon fill="#181818" points="425.94,153.8628,416.94,149.8628,420.94,153.8628,416.94,157.8628,425.94,153.8628" style="stroke:#181818;stroke-width:1;"/><text fill="#000000" font-family="sans-serif" font-size="13" lengthAdjust="spacing" textLength="29.7832" x="279.1551" y="134.9297">uses</text><text fill="#000000" font-family="sans-serif" font-size="13" lengthAdjust="spacing" textLength="30.291" x="242.71" y="150.0625">local</text><text fill="#000000" font-family="sans-serif" font-size="13" lengthAdjust="spacing" textLength="4.1323" x="273.001" y="150.0625">&#160;</text><text fill="#000000" font-family="sans-serif" font-size="13" lengthAdjust="spacing" textLength="23.1245" x="277.1333" y="150.0625">TTL</text><text fill="#000000" font-family="sans-serif" font-size="13" lengthAdjust="spacing" textLength="4.1323" x="300.2579" y="150.0625">&#160;</text><text fill="#000000" font-family="sans-serif" font-size="13" lengthAdjust="spacing" textLength="40.9932" x="304.3902" y="150.0625">dedup</text></g><!--link sms to smsRedis--><g class="link" data-entity-1="ent0009" data-entity-2="ent0017" data-link-type="dependency" data-source-line="34" id="lnk25"><path d="M195.97,75.8628 C266.29,75.8628 355.13,75.8628 419.28,75.8628" fill="none" id="sms-to-smsRedis" style="stroke:#181818;stroke-width:1;"/><polygon fill="#181818" points="425.28,75.8628,416.28,71.8628,420.28,75.8628,416.28,79.8628,425.28,75.8628" style="stroke:#181818;stroke-width:1;"/><text fill="#000000" font-family="sans-serif" font-size="13" lengthAdjust="spacing" textLength="29.7832" x="279.1551" y="56.9297">uses</text><text fill="#000000" font-family="sans-serif" font-size="13" lengthAdjust="spacing" textLength="30.291" x="242.71" y="72.0625">local</text><text fill="#000000" font-family="sans-serif" font-size="13" lengthAdjust="spacing" textLength="4.1323" x="273.001" y="72.0625">&#160;</text><text fill="#000000" font-family="sans-serif" font-size="13" lengthAdjust="spacing" textLength="23.1245" x="277.1333" y="72.0625">TTL</text><text fill="#000000" font-family="sans-serif" font-size="13" lengthAdjust="spacing" textLength="4.1323" x="300.2579" y="72.0625">&#160;</text><text fill="#000000" font-family="sans-serif" font-size="13" lengthAdjust="spacing" textLength="40.9932" x="304.3902" y="72.0625">dedup</text></g><g class="legend" data-source-line="36"><rect fill="#DDDDDD" height="75.1875" rx="7.5" ry="7.5" style="stroke:#000000;stroke-width:1;" width="389.9551" x="218.9766" y="787.6665"/><text fill="#000000" font-family="sans-serif" font-size="14" lengthAdjust="spacing" textLength="260.2031" x="283.8526" y="805.6617">PostgreSQL stores transactional data</text><text fill="#000000" font-family="sans-serif" font-size="14" lengthAdjust="spacing" textLength="329.8066" x="249.0508" y="821.9585">ClickHouse stores append-only delivery history</text><text fill="#000000" font-family="sans-serif" font-size="14" lengthAdjust="spacing" textLength="379.9551" x="223.9766" y="838.2554">Redis stores only TTL cancellation and dedup markers</text><text fill="#000000" font-family="sans-serif" font-size="14" lengthAdjust="spacing" textLength="351.2168" x="238.3457" y="854.5523">MongoDB stores templates and template versions</text></g><?plantuml-src VLHDR-CW4BtpAqOzjzAgnoggjDjerKFJxJQHUibbQYOs2WOluARvzpk0FuYbzf8Ovht7p3m6JOS0mO9JTHD0AaTLKDO8VrIcGuSj-0QbFIbJmm6rfo9IsRQpXapOXhCcY5GqjIuXaWxOwx2Zp_1JgzgqZ8QAVyWLg9F3xat9qC3jxGyXWWeijmtMOKtmvuFSXwAJ4DDvSFLiWpge2cEky1ihb7G5w3d5-5aYrwGLAvnXhNo7eMh89QISbYNwnTc3uiCVhF6yaP1TtYjXEsexZO7WbMhbWpidO1XsVGbzvBZbuz-S2iFHJTugKGzeAj8wrxED1LUveAe8VDc03IhDB2E70rfUVmdURhObrhTU28a1tz4JNELUmelreNQq_VjKj7Nz3glL7Bc_BtXpTvVSkT7VyHUDNueC7dodiB6cjkjVC7hZSolYBfE6w0NZGQlg-6Xx_XvTYfTkQ7mCDYcuMir85lZNKy_iL-BAuCAu3RgZBspBaDKg_I-PoRGroRwRFFiM7tsRuMpR4YsoIt1pSpyRTWVsPFpUcF8Aq0Uts5_l3VPI4MTwFRd4cxOFx_PJpBubnGiRHrNFQzbhaX3G7ta3ZIoGu0CR8GRpainivAZ1puRgLFHyYCN4gWQD8SrFJBeESKkI3yga0hoOHYs9PfD7mJd6sUmD3xzFd67i4gDmTwJ9yQ4OS34pbApD0L6EOHOe31uLThkdYtdTcpPU216jpNbE7jy17yqKRIlK48aoMYlOreISxFqAA3JLFCJvtHPGp0l4xBduuD1uJAyvC-EjPrXnvGSOTXtht5YZpx1i0HDo5WCsWPPLGl8y9WMnNEusqyPX77CfBPbMC5d36UHw_WC0?></g></svg>